<mxfile host="app.diagrams.net" agent="Mozilla/5.0 (Macintosh; Intel Mac OS X 10_15_7) AppleWebKit/537.36 (KHTML, like Gecko) Chrome/134.0.0.0 Safari/537.36" version="26.2.9">
  <diagram name="第 1 页" id="iSjN9xxAMYRuOnzgNu4w">
    <mxGraphModel dx="1236" dy="705" grid="1" gridSize="10" guides="1" tooltips="1" connect="1" arrows="1" fold="1" page="1" pageScale="1" pageWidth="827" pageHeight="1169" math="0" shadow="0">
      <root>
        <mxCell id="0" />
        <mxCell id="1" parent="0" />
        <mxCell id="lPX2I5hKLo9bNHdFQJU1-1" value="知识增强" style="rounded=1;whiteSpace=wrap;html=1;" vertex="1" parent="1">
          <mxGeometry x="100" y="180" width="120" height="60" as="geometry" />
        </mxCell>
        <mxCell id="lPX2I5hKLo9bNHdFQJU1-10" style="edgeStyle=orthogonalEdgeStyle;rounded=0;orthogonalLoop=1;jettySize=auto;html=1;entryX=0.5;entryY=1;entryDx=0;entryDy=0;" edge="1" parent="1" source="lPX2I5hKLo9bNHdFQJU1-2" target="lPX2I5hKLo9bNHdFQJU1-9">
          <mxGeometry relative="1" as="geometry" />
        </mxCell>
        <mxCell id="lPX2I5hKLo9bNHdFQJU1-2" value="CoT增强&lt;div&gt;简单QA-》long cot QA&lt;/div&gt;" style="rounded=1;whiteSpace=wrap;html=1;" vertex="1" parent="1">
          <mxGeometry x="280" y="180" width="120" height="60" as="geometry" />
        </mxCell>
        <mxCell id="lPX2I5hKLo9bNHdFQJU1-3" value="训练数据，采样" style="rounded=1;whiteSpace=wrap;html=1;" vertex="1" parent="1">
          <mxGeometry x="450" y="180" width="120" height="60" as="geometry" />
        </mxCell>
        <mxCell id="lPX2I5hKLo9bNHdFQJU1-7" style="edgeStyle=orthogonalEdgeStyle;rounded=0;orthogonalLoop=1;jettySize=auto;html=1;" edge="1" parent="1" source="lPX2I5hKLo9bNHdFQJU1-4" target="lPX2I5hKLo9bNHdFQJU1-6">
          <mxGeometry relative="1" as="geometry" />
        </mxCell>
        <mxCell id="lPX2I5hKLo9bNHdFQJU1-4" value="Datamap(数据体系+算子）" style="rounded=1;whiteSpace=wrap;html=1;" vertex="1" parent="1">
          <mxGeometry x="350" y="340" width="120" height="60" as="geometry" />
        </mxCell>
        <mxCell id="lPX2I5hKLo9bNHdFQJU1-6" value="sample" style="rounded=1;whiteSpace=wrap;html=1;" vertex="1" parent="1">
          <mxGeometry x="350" y="480" width="120" height="60" as="geometry" />
        </mxCell>
        <mxCell id="lPX2I5hKLo9bNHdFQJU1-8" value="评测集，筛选机制" style="rounded=1;whiteSpace=wrap;html=1;" vertex="1" parent="1">
          <mxGeometry x="610" y="180" width="120" height="60" as="geometry" />
        </mxCell>
        <mxCell id="lPX2I5hKLo9bNHdFQJU1-9" value="定制" style="rounded=1;whiteSpace=wrap;html=1;" vertex="1" parent="1">
          <mxGeometry x="280" y="70" width="120" height="60" as="geometry" />
        </mxCell>
        <mxCell id="lPX2I5hKLo9bNHdFQJU1-11" value="" style="rounded=1;whiteSpace=wrap;html=1;" vertex="1" parent="1">
          <mxGeometry x="80" y="700" width="120" height="60" as="geometry" />
        </mxCell>
        <mxCell id="lPX2I5hKLo9bNHdFQJU1-13" style="edgeStyle=orthogonalEdgeStyle;rounded=0;orthogonalLoop=1;jettySize=auto;html=1;entryX=0;entryY=0.5;entryDx=0;entryDy=0;" edge="1" parent="1" source="lPX2I5hKLo9bNHdFQJU1-12" target="lPX2I5hKLo9bNHdFQJU1-14">
          <mxGeometry relative="1" as="geometry">
            <mxPoint x="790" y="690" as="targetPoint" />
          </mxGeometry>
        </mxCell>
        <mxCell id="lPX2I5hKLo9bNHdFQJU1-12" value="评测集" style="rounded=1;whiteSpace=wrap;html=1;" vertex="1" parent="1">
          <mxGeometry x="420" y="650" width="120" height="60" as="geometry" />
        </mxCell>
        <mxCell id="lPX2I5hKLo9bNHdFQJU1-14" value="视频，videomme&lt;div&gt;video mmmu，知识学科。知识点&lt;/div&gt;&lt;div&gt;mvbench&lt;/div&gt;" style="rounded=1;whiteSpace=wrap;html=1;" vertex="1" parent="1">
          <mxGeometry x="640" y="570" width="120" height="60" as="geometry" />
        </mxCell>
      </root>
    </mxGraphModel>
  </diagram>
</mxfile>
